Video: Xvid 720x318 29.97fps 
Audio: MPEG Audio Layer 3 44100Hz stereo 128kbps 

Complete name                  : Battleship.2012.HDCAMaudio.XviD-Mripper
Format                         : AVI
Format/Info                    : Audio Video Interleave
File size                      : 1.56 GiB
Duration                       : 2h 1mn
Overall bit rate               : 1 839 Kbps
Writing library                : VirtualDub build 31536/release

Video
ID                             : 0
Format                         : MPEG-4 Visual
Format profile                 : Advanced Simple@L5
Format settings, BVOP          : 2
Format settings, QPel          : No
Format settings, GMC           : No warppoints
Format settings, Matrix        : Default (H.263)
Muxing mode                    : Packed bitstream
Codec ID                       : XVID
Codec ID/Hint                  : XviD
Duration                       : 2h 1mn
Bit rate                       : 1 699 Kbps
Width                          : 720 pixels
Height                         : 318 pixels
Display aspect ratio           : 2.25:1
Frame rate                     : 29.970 fps
Color space                    : YUV
Chroma subsampling             : 4:2:0
Bit depth                      : 8 bits
Scan type                      : Progressive
Compression mode               : Lossy
Bits/(Pixel*Frame)             : 0.248
Stream size                    : 1.44 GiB (92%)
Writing library                : XviD 64

Audio
ID                             : 1
Format                         : MPEG Audio
Format version                 : Version 1
Format profile                 : Layer 3
Codec ID                       : 55
Codec ID/Hint                  : MP3
Duration                       : 2h 1mn
Bit rate mode                  : Constant
Bit rate                       : 128 Kbps
Channel(s)                     : 2 channels
Sampling rate                  : 44.1 KHz
Compression mode               : Lossy
Delay relative to video        : 3s 100ms
Stream size                    : 111 MiB (7%)
Alignment                      : Split accross interleaves
Interleave, duration           : 33 ms (1.00 video frame)
Interleave, preload duration   : 500 ms

Video proof screenshots please seed
 
http://img839.imageshack.us/img839/7977/vlcsnap2012052121h27m20.png 
http://img407.imageshack.us/img407/7200/vlcsnap2012052121h28m45.png 
http://img521.imageshack.us/img521/9646/vlcsnap2012052121h26m57.png 
http://img715.imageshack.us/img715/964/vlcsnap2012052121h25m52.png

Enjoy